<svg class="icon" viewBox="0 0 1024 1024" xmlns="http://www.w3.org/2000/svg" width="200" height="200">
  <path
    d="M810.8 359.9h-31.6c3.3-15.9 5-32.4 5-49.2v-49.5c0-136.4-110.5-246.9-246.9-246.9S290.4 124.8 290.4 261.2v49.5c0 16.8 1.6 33.3 4.9 49.2h-31.6c-67.1 0-121.5 57.7-121.5 128.4v385.2c0 70.9 54.4 128.7 121.5 128.7h547.2c67.1 0 121.5-57.7 121.5-128.7V488.3c-.1-70.7-54.5-128.4-121.6-128.4zm-421.8 0v-98.7c0-81.9 66.3-148.2 148.2-148.2s148.2 66.3 148.2 148.2v98.7H389z"
    fill="#FFD071" />
  <path
    d="M810.8 1013.6H263.6c-73.3 0-132.9-62.8-132.9-140.1V488.3c0-77.1 59.6-139.8 132.9-139.8h18c-1.8-12.4-2.8-25-2.8-37.8v-49.5c0-69 26.9-133.9 75.7-182.7C403.3 29.7 468.2 2.8 537.2 2.8c69 0 133.9 26.9 182.7 75.7 48.8 48.8 75.7 113.7 75.7 182.7v49.5c0 12.8-.9 25.5-2.8 37.8h18c73.3 0 132.9 62.7 132.9 139.8v385.2c0 77.3-59.6 140.1-132.9 140.1zM263.6 371.3c-60.7 0-110.1 52.5-110.1 117v385.2c0 64.7 49.4 117.3 110.1 117.3h547.2c60.7 0 110.1-52.6 110.1-117.3V488.3c0-64.5-49.4-117-110.1-117h-31.6c-3.4 0-6.7-1.5-8.8-4.2s-3-6.2-2.3-9.5c3.1-15.1 4.7-30.9 4.7-46.9v-49.5c0-129.9-105.7-235.5-235.5-235.5S301.6 131.3 301.6 261.2v49.5c0 16 1.6 31.8 4.7 46.9.7 3.4-.2 6.9-2.3 9.5s-5.4 4.2-8.8 4.2h-31.6zm421.8 0H389c-6.3 0-11.4-5.1-11.4-11.4v-98.7c0-42.7 16.6-82.8 46.7-112.9 30.1-30.1 70.2-46.7 112.9-46.7s82.8 16.6 112.9 46.7c30.1 30.1 46.7 70.2 46.7 112.9v98.7c0 6.3-5.1 11.4-11.4 11.4zm-285-22.8H674v-87.3c0-75.4-61.4-136.8-136.8-136.8s-136.8 61.4-136.8 136.8v87.3z"
    fill="#D17511" />
  <path
    d="M678.8 359.9H263.6c-67.1 0-121.5 57.7-121.5 128.4v385.2c0 70.9 54.4 128.7 121.5 128.7h415.2c67.1 0 121.5-57.7 121.5-128.7V488.3c0-70.7-54.4-128.4-121.5-128.4z"
    fill="#EAAD42" />
  <path
    d="M487.8 692.3v112.3c0 27.2 22.1 49.4 49.4 49.4 27.3 0 49.4-22.2 49.4-49.4V692.3c30-17 50.4-48.6 50.4-85.3 0-54.6-44.7-98.8-99.8-98.8-55.1 0-99.8 44.2-99.8 98.8 0 36.6 20.5 68.3 50.4 85.3z"
    fill="#FFF" />
  <path
    d="M537.2 865.4c-33.5 0-60.8-27.3-60.8-60.8V698.7C445.2 678.4 426 643.8 426 607c0-60.8 49.9-110.2 111.2-110.2 61.3 0 111.2 49.4 111.2 110.2 0 36.9-19.1 71.4-50.4 91.7v105.9c0 33.5-27.2 60.8-60.8 60.8zm0-345.8c-48.8 0-88.4 39.2-88.4 87.4 0 30.9 17.1 59.8 44.6 75.4 3.6 2 5.8 5.8 5.8 9.9v112.3c0 21 17 38 38 38s38-17 38-38V692.3c0-4.1 2.2-7.9 5.8-9.9 27.5-15.6 44.6-44.5 44.6-75.4 0-48.2-39.6-87.4-88.4-87.4z"
    fill="#E27124" />
  <path
    d="M810.8 1013.6H263.6c-73.3 0-132.9-62.8-132.9-140.1V488.3c0-77.1 59.6-139.8 132.9-139.8h18c-1.8-12.4-2.8-25-2.8-37.8v-49.5c0-69 26.9-133.9 75.7-182.7C403.3 29.7 468.2 2.8 537.2 2.8c69 0 133.9 26.9 182.7 75.7 48.8 48.8 75.7 113.7 75.7 182.7v49.5c0 12.8-.9 25.5-2.8 37.8h18c73.3 0 132.9 62.7 132.9 139.8v385.2c0 77.3-59.6 140.1-132.9 140.1zM263.6 371.3c-60.7 0-110.1 52.5-110.1 117v385.2c0 64.7 49.4 117.3 110.1 117.3h547.2c60.7 0 110.1-52.6 110.1-117.3V488.3c0-64.5-49.4-117-110.1-117h-31.6c-3.4 0-6.7-1.5-8.8-4.2s-3-6.2-2.3-9.5c3.1-15.1 4.7-30.9 4.7-46.9v-49.5c0-129.9-105.7-235.5-235.5-235.5S301.6 131.3 301.6 261.2v49.5c0 16 1.6 31.8 4.7 46.9.7 3.4-.2 6.9-2.3 9.5s-5.4 4.2-8.8 4.2h-31.6zm421.8 0H389c-6.3 0-11.4-5.1-11.4-11.4v-98.7c0-42.7 16.6-82.8 46.7-112.9 30.1-30.1 70.2-46.7 112.9-46.7s82.8 16.6 112.9 46.7c30.1 30.1 46.7 70.2 46.7 112.9v98.7c0 6.3-5.1 11.4-11.4 11.4zm-285-22.8H674v-87.3c0-75.4-61.4-136.8-136.8-136.8s-136.8 61.4-136.8 136.8v87.3z"
    fill="#D17511" />
</svg>